<svg width="17" height="18" viewBox="0 0 17 18" fill="none" xmlns="http://www.w3.org/2000/svg">
<path d="M9.33329 8.16663H4.33329C4.11228 8.16663 3.90032 8.25442 3.74404 8.4107C3.58776 8.56698 3.49996 8.77894 3.49996 8.99996C3.49996 9.22097 3.58776 9.43293 3.74404 9.58921C3.90032 9.74549 4.11228 9.83329 4.33329 9.83329H9.33329C9.55431 9.83329 9.76627 9.74549 9.92255 9.58921C10.0788 9.43293 10.1666 9.22097 10.1666 8.99996C10.1666 8.77894 10.0788 8.56698 9.92255 8.4107C9.76627 8.25442 9.55431 8.16663 9.33329 8.16663ZM12.6666 4.83329H4.33329C4.11228 4.83329 3.90032 4.92109 3.74404 5.07737C3.58776 5.23365 3.49996 5.44561 3.49996 5.66663C3.49996 5.88764 3.58776 6.0996 3.74404 6.25588C3.90032 6.41216 4.11228 6.49996 4.33329 6.49996H12.6666C12.8876 6.49996 13.0996 6.41216 13.2559 6.25588C13.4122 6.0996 13.5 5.88764 13.5 5.66663C13.5 5.44561 13.4122 5.23365 13.2559 5.07737C13.0996 4.92109 12.8876 4.83329 12.6666 4.83329ZM14.3333 0.666626H2.66663C2.00358 0.666626 1.3677 0.930018 0.898859 1.39886C0.430018 1.8677 0.166626 2.50358 0.166626 3.16663V11.5C0.166626 12.163 0.430018 12.7989 0.898859 13.2677C1.3677 13.7366 2.00358 14 2.66663 14H12.325L15.4083 17.0916C15.4862 17.1689 15.5785 17.23 15.68 17.2714C15.7816 17.3129 15.8903 17.3339 16 17.3333C16.1093 17.3361 16.2177 17.3133 16.3166 17.2666C16.4688 17.2041 16.5991 17.0979 16.691 16.9615C16.783 16.8251 16.8325 16.6645 16.8333 16.5V3.16663C16.8333 2.50358 16.5699 1.8677 16.1011 1.39886C15.6322 0.930018 14.9963 0.666626 14.3333 0.666626ZM15.1666 14.4916L13.2583 12.575C13.1804 12.4977 13.0881 12.4366 12.9865 12.3951C12.885 12.3537 12.7763 12.3327 12.6666 12.3333H2.66663C2.44561 12.3333 2.23365 12.2455 2.07737 12.0892C1.92109 11.9329 1.83329 11.721 1.83329 11.5V3.16663C1.83329 2.94561 1.92109 2.73365 2.07737 2.57737C2.23365 2.42109 2.44561 2.33329 2.66663 2.33329H14.3333C14.5543 2.33329 14.7663 2.42109 14.9225 2.57737C15.0788 2.73365 15.1666 2.94561 15.1666 3.16663V14.4916Z" fill="white"/>
</svg>
