<svg width="21" height="18" viewBox="0 0 21 18" fill="none" xmlns="http://www.w3.org/2000/svg">
<path d="M19.1598 2.00001C18.0998 0.93722 16.6946 0.288553 15.1981 0.171183C13.7017 0.0538127 12.2126 0.475479 10.9998 1.36001C9.72744 0.41365 8.14378 -0.0154759 6.56771 0.15905C4.99164 0.333576 3.54023 1.09879 2.50576 2.3006C1.47129 3.5024 0.93061 5.05153 0.992588 6.63603C1.05457 8.22052 1.71461 9.72268 2.83979 10.84L9.04979 17.06C9.56981 17.5718 10.2702 17.8586 10.9998 17.8586C11.7294 17.8586 12.4298 17.5718 12.9498 17.06L19.1598 10.84C20.3274 9.66528 20.9827 8.07629 20.9827 6.42001C20.9827 4.76374 20.3274 3.17475 19.1598 2.00001ZM17.7498 9.46001L11.5398 15.67C11.4691 15.7414 11.385 15.798 11.2923 15.8367C11.1996 15.8753 11.1002 15.8952 10.9998 15.8952C10.8994 15.8952 10.7999 15.8753 10.7072 15.8367C10.6146 15.798 10.5305 15.7414 10.4598 15.67L4.24979 9.43001C3.46555 8.62836 3.0264 7.55148 3.0264 6.43001C3.0264 5.30855 3.46555 4.23167 4.24979 3.43001C5.04894 2.641 6.12676 2.19858 7.24979 2.19858C8.37281 2.19858 9.45063 2.641 10.2498 3.43001C10.3428 3.52374 10.4534 3.59814 10.5752 3.6489C10.6971 3.69967 10.8278 3.72581 10.9598 3.72581C11.0918 3.72581 11.2225 3.69967 11.3444 3.6489C11.4662 3.59814 11.5768 3.52374 11.6698 3.43001C12.4689 2.641 13.5468 2.19858 14.6698 2.19858C15.7928 2.19858 16.8706 2.641 17.6698 3.43001C18.4648 4.22116 18.9184 5.2922 18.9333 6.4137C18.9483 7.53519 18.5234 8.61795 17.7498 9.43001V9.46001Z" fill="#2C2C2E"/>
</svg>
