<svg width="22" height="20" viewBox="0 0 22 20" fill="none" xmlns="http://www.w3.org/2000/svg">
<path d="M21.9642 11.8226C21.9603 11.7638 21.9508 11.7055 21.936 11.6484L19.6313 5.51135C20.0508 5.24006 20.3957 4.86818 20.6347 4.42956C20.8738 3.99095 20.9993 3.49952 21 3C21 2.73478 20.8946 2.48043 20.7071 2.29289C20.5196 2.10536 20.2652 2 20 2C19.7348 2 19.4804 2.10536 19.2929 2.29289C19.1054 2.48043 19 2.73478 19 3C18.9999 3.22285 18.9254 3.43929 18.7884 3.61499C18.6513 3.79069 18.4595 3.91559 18.2433 3.96987C18.0272 4.02416 17.7991 4.00472 17.5953 3.91465C17.3915 3.82457 17.2235 3.66902 17.1182 3.47266C16.8616 3.01717 16.4863 2.63972 16.0324 2.38042C15.5784 2.12111 15.0627 1.98965 14.54 2H12V1C12 0.734784 11.8946 0.48043 11.7071 0.292893C11.5196 0.105357 11.2652 0 11 0C10.7348 0 10.4804 0.105357 10.2929 0.292893C10.1054 0.48043 10 0.734784 10 1V2H7.46C6.93731 1.98965 6.42158 2.12111 5.96762 2.38042C5.51366 2.63972 5.13844 3.01717 4.88184 3.47266C4.77647 3.66902 4.60855 3.82457 4.40471 3.91465C4.20088 4.00472 3.97281 4.02416 3.75668 3.96987C3.54054 3.91559 3.34872 3.79069 3.21165 3.61499C3.07457 3.43929 3.00008 3.22285 3 3C3 2.73478 2.89464 2.48043 2.70711 2.29289C2.51957 2.10536 2.26522 2 2 2C1.73478 2 1.48043 2.10536 1.29289 2.29289C1.10536 2.48043 1 2.73478 1 3C1.00065 3.49952 1.12621 3.99095 1.36525 4.42956C1.60429 4.86818 1.94922 5.24006 2.36865 5.51135L0.064 11.6484C0.049206 11.7055 0.0397685 11.7638 0.03581 11.8226C0.0182484 11.8805 0.00625722 11.9399 0 12C0 12.0093 0.00269004 12.0178 0.00275004 12.0271C0.00305004 12.0403 0.00574997 12.0524 0.00664997 12.0655C0.0222201 13.1144 0.449797 14.115 1.197 14.8512C1.94421 15.5874 2.95105 16.0001 4 16.0001C5.04895 16.0001 6.05579 15.5874 6.803 14.8512C7.5502 14.115 7.97778 13.1144 7.99335 12.0655C7.9942 12.0524 7.99695 12.0403 7.99725 12.0271C7.99731 12.0178 8 12.0093 8 12C7.99376 11.9399 7.98178 11.8805 7.96423 11.8226C7.96027 11.7638 7.95083 11.7055 7.93604 11.6484L5.62866 5.50421C6.05242 5.23377 6.40114 4.86085 6.64258 4.41992C6.72984 4.2842 6.85137 4.1739 6.99489 4.10017C7.13841 4.02644 7.29885 3.99189 7.46 4H10V18H7C6.73478 18 6.48043 18.1054 6.29289 18.2929C6.10536 18.4804 6 18.7348 6 19C6 19.2652 6.10536 19.5196 6.29289 19.7071C6.48043 19.8946 6.73478 20 7 20H15C15.2652 20 15.5196 19.8946 15.7071 19.7071C15.8946 19.5196 16 19.2652 16 19C16 18.7348 15.8946 18.4804 15.7071 18.2929C15.5196 18.1054 15.2652 18 15 18H12V4H14.54C14.7011 3.9919 14.8616 4.02646 15.0051 4.10018C15.1486 4.17391 15.2701 4.2842 15.3574 4.41992C15.5988 4.86085 15.9475 5.23377 16.3713 5.50421L14.064 11.6484C14.0492 11.7055 14.0398 11.7638 14.0358 11.8226C14.0182 11.8805 14.0063 11.9399 14 12C14 12.0093 14.0027 12.0178 14.0028 12.0271C14.0031 12.0403 14.0057 12.0524 14.0066 12.0655C14.0222 13.1144 14.4498 14.115 15.197 14.8512C15.9442 15.5874 16.951 16.0001 18 16.0001C19.049 16.0001 20.0558 15.5874 20.803 14.8512C21.5502 14.115 21.9778 13.1144 21.9933 12.0655C21.9942 12.0524 21.997 12.0403 21.9972 12.0271C21.9973 12.0178 22 12.0093 22 12C21.9938 11.9399 21.9818 11.8805 21.9642 11.8226ZM4 6.85553L5.5564 11H2.4436L4 6.85553ZM5.72266 13C5.54618 13.3011 5.29479 13.5515 4.99293 13.7267C4.69107 13.9019 4.34901 13.9961 4 14C3.64903 13.9999 3.30428 13.9074 3.00036 13.7319C2.69644 13.5563 2.44405 13.3039 2.26855 13H5.72266ZM18 6.85553L19.5564 11H16.4436L18 6.85553ZM18 14C17.649 13.9999 17.3043 13.9074 17.0004 13.7319C16.6964 13.5563 16.4441 13.3039 16.2686 13H19.7227C19.5462 13.3011 19.2948 13.5515 18.9929 13.7267C18.6911 13.9019 18.349 13.9961 18 14Z" fill="#2C2C2E"/>
</svg>
